<svg xmlns="http://www.w3.org/2000/svg" viewBox="0 0 1433.9 1861.97"><defs><style>.f12aa1ff-192b-432d-88e7-9a70ff89f870{fill:#fa0;}.a73d03bc-e611-43fb-8390-5ddc25399990{fill:#ef3f0f;}.e40f7841-f178-4d37-ad3f-f4ba45b4dca1{stroke:#000;stroke-miterlimit:10;}</style></defs><title>logo-flamme</title><g id="a428cc91-d503-4485-9c0b-6edf8e81e5bf" data-name="Calque 2"><path class="f12aa1ff-192b-432d-88e7-9a70ff89f870" d="M687.5,27.5c24-12,299,88,404,238s145,282,145,282,29-255,60-260,371,379,393,844-318,722-671,754-691-196-742-527,8-416,44-542-10-237,7-254,275,152,322,158,96-218,98-353S663.5,39.5,687.5,27.5Z" transform="translate(-256.61 -26.53)"/><path class="a73d03bc-e611-43fb-8390-5ddc25399990" d="M1130.93,559.64c-16.71-7.73-210.66,54.91-281.34,153.43-76.38,106.46-50.11,259-90.72,278.82-42.38,20.72-276.52-239.18-285.44-222.83s28.24,174.18,31,273.63-39.92,167.45-40.05,260.06,26.5,199.33,122,293.8,191.14,150.53,314,160.85c245.83,20.63,481.21-126.35,516.73-339.73s-5.57-268.17-30.64-349.4,7-152.78-4.88-163.74-191.5,98-224.24,101.85-66.85-140.53-68.24-227.56S1147.65,567.38,1130.93,559.64Z" transform="translate(-256.61 -26.53)"/></g><g id="be4afa9e-635a-4c7d-b1f8-0a165ca710ea" data-name="Calque 3"><ellipse class="e40f7841-f178-4d37-ad3f-f4ba45b4dca1" cx="552.39" cy="1191.47" rx="56.5" ry="92.5"/><ellipse class="e40f7841-f178-4d37-ad3f-f4ba45b4dca1" cx="831.39" cy="1191.47" rx="56.5" ry="92.5"/></g><g id="a54c60a5-f79b-46f5-b40d-a2ac4349b4e5" data-name="Calque 4"><path class="e40f7841-f178-4d37-ad3f-f4ba45b4dca1" d="M607.5,1310.5s163,218,307,218,373-231,373-231-207,295-371,295S607.5,1310.5,607.5,1310.5Z" transform="translate(-256.61 -26.53)"/></g></svg>
