<svg xmlns="http://www.w3.org/2000/svg" viewBox="0 0 1841.93 1652.11"><defs><style>.ff45e691-cc61-46d4-a40e-005b207dd525{fill:#4ab5ce;}.af35b846-e084-402a-8241-ede2119b4b90{fill:#84e0ef;}.f3716ed8-e6f6-4823-9a26-3149f395525b{fill:#053942;}.b64f0a47-f92b-4246-9d98-90eff6ac0a3e{fill:#fff;}</style></defs><title>logo-icecube</title><g id="bf6a48fc-154f-46ac-9f0e-05cb76d25497" data-name="Calque 2"><path class="ff45e691-cc61-46d4-a40e-005b207dd525" d="M118.6,141.33c55.91-24.85,206.27,60.89,461,63.37s514.44-59.64,738.11-63.37,313.14-29.83,405.09,44.73,36,548,58.41,731.9,117.35,568.53,96.92,678.47c-19.46,104.7-51.57,159.06-130.47,180.18s-1557,0-1557,0-64.62,7.46-119.29-58.4c-28.52-34.35,25.28-432.74,22.36-811.91C91.07,558.47,39.07,352.57,39.07,299.14S62.68,166.18,118.6,141.33Z" transform="translate(-39.07 -133.89)"/><path class="af35b846-e084-402a-8241-ede2119b4b90" d="M188,256.83c51.46-20.55,189.85,50.35,424.32,52.4s473.5-49.32,679.37-52.4,288.22-24.66,372.85,37S1566.7,772.1,1630.25,899s93.76,373,67.46,462.34,130.78,161.43-10.25,247.68-1433.09,0-1433.09,0-59.47,6.16-109.8-48.3c-26.24-28.4,138.92-357.83,136.24-671.37-2.46-287.62-107.49-441-166-502.06S136.57,277.38,188,256.83Z" transform="translate(-39.07 -133.89)"/><ellipse class="f3716ed8-e6f6-4823-9a26-3149f395525b" cx="704.61" cy="658.23" rx="108.77" ry="136.35"/><path class="f3716ed8-e6f6-4823-9a26-3149f395525b" d="M1396.57,1398.2s-188.91-280.57-367.63-289.41-477.12,263.78-477.12,263.78,275-353.41,478.57-343.34S1396.57,1398.2,1396.57,1398.2Z" transform="translate(-39.07 -133.89)"/><ellipse class="f3716ed8-e6f6-4823-9a26-3149f395525b" cx="1165.3" cy="658.22" rx="108.77" ry="136.35"/></g><g id="acf2f52c-9add-4e45-bd4d-268f48675abd" data-name="Calque 4"><path class="b64f0a47-f92b-4246-9d98-90eff6ac0a3e" d="M172,1275.22s-88.23,292-42.25,380.24,422.49,68.34,422.49,68.34S319.9,1660.43,259,1579.66,172,1275.22,172,1275.22Z" transform="translate(-39.07 -133.89)"/><path class="b64f0a47-f92b-4246-9d98-90eff6ac0a3e" d="M1204.64,224s257.22-113.08,436.16-26.09,77,457.28,77,457.28,3.73-304.44-121.77-381.48S1204.64,224,1204.64,224Z" transform="translate(-39.07 -133.89)"/><path class="b64f0a47-f92b-4246-9d98-90eff6ac0a3e" d="M396.22,204.84s-217.66-32.08-275.58,10.41-3,310.92-3,310.92,20.05-173.77,71-226.18S396.22,204.84,396.22,204.84Z" transform="translate(-39.07 -133.89)"/><path class="b64f0a47-f92b-4246-9d98-90eff6ac0a3e" d="M1537.12,1682.73s189.55,14.35,235.18-28.65-26.69-285.47-26.69-285.47-.81,160.82-39.56,212.44S1537.12,1682.73,1537.12,1682.73Z" transform="translate(-39.07 -133.89)"/></g></svg>
